<?xml version="1.0" encoding="utf-8"?>
<!-- Svg Vector Icons : http://www.onlinewebfonts.com/icon -->
<!DOCTYPE svg PUBLIC "-//W3C//DTD SVG 1.1//EN" "http://www.w3.org/Graphics/SVG/1.1/DTD/svg11.dtd">
<svg version="1.1" xmlns="http://www.w3.org/2000/svg" xmlns:xlink="http://www.w3.org/1999/xlink" x="0px" y="0px" viewBox="0 0 256 256" enable-background="new 0 0 256 256" xml:space="preserve">
<metadata> Svg Vector Icons : http://www.onlinewebfonts.com/icon </metadata>
<g><g><path fill="#000000" d="M33.6,236.2c-0.1,6.5-5.5,11.7-12.1,11.6c-6.5-0.1-11.7-5.5-11.6-12.1c1.3-61.5,62.4-100.8,118-100.8c56.9,0,116.7,39.3,118,100.8c0.1,6.5-5.1,11.9-11.6,12.1c-6.5,0.1-11.9-5.1-12.1-11.6c-1-48-49.8-77.7-94.4-77.7C83.2,158.5,34.6,189.7,33.6,236.2"/><path fill="#000000" d="M128,126.3c26.1,0,47.2-21.2,47.2-47.2c0-26-21.2-47.2-47.2-47.2c-26,0-47.2,21.2-47.2,47.2C80.8,105.1,101.9,126.3,128,126.3 M128,149.9c-39.1,0-70.8-31.7-70.8-70.8C57.2,40,88.9,8.2,128,8.2c39.1,0,70.9,31.7,70.9,70.8C198.8,118.2,167.1,149.9,128,149.9L128,149.9L128,149.9z"/></g></g>
</svg>